<svg height="512pt" viewBox="0 -59 512 512" width="512pt" xmlns="http://www.w3.org/2000/svg"><path d="m410.988281 178.050781c0-.183593.003907-.367187.003907-.546875 0-66.578125-53.96875-120.550781-120.546876-120.550781-51.871093 0-96.082031 32.757813-113.089843 78.714844-7.09375-4.097657-15.324219-6.453125-24.105469-6.453125-26.667969 0-48.289062 21.617187-48.289062 48.289062 0 .074219.007812.148438.007812.222656-54.414062 3.496094-97.46875 48.726563-97.46875 104.019532 0 57.574218 46.671875 104.246094 104.246094 104.246094h288.511718c57.570313 0 104.242188-46.671876 104.242188-104.246094 0-53.949219-40.980469-98.324219-93.511719-103.695313zm0 0" fill="#e5ebf5"/><path d="m104.96875 177.726562c0-.074218-.007812-.148437-.007812-.222656 0-26.667968 21.621093-48.289062 48.289062-48.289062 8.78125 0 17.011719 2.355468 24.105469 6.453125 9.558593-25.832031 27.714843-47.492188 50.996093-61.511719-18.515624-39.386719-58.542968-66.65625-104.941406-66.65625-64.015625 0-115.910156 51.894531-115.910156 115.90625 0 31.851562 12.851562 60.699219 33.644531 81.652344 17.019531-15.671875 39.261719-25.753906 63.824219-27.332032zm0 0" fill="#f8e868"/><path d="m183.25 129.214844c8.78125 0 17.007812 2.355468 24.105469 6.453125 15.34375-41.464844 52.835937-72.175781 98.117187-77.785157-4.925781-.613281-9.941406-.929687-15.027344-.929687-49.453124 0-91.925781 29.785156-110.519531 72.386719 1.101563-.074219 2.207031-.125 3.324219-.125zm0 0" fill="#cad8ea"/><path d="m37.5 281.746094c0-55.292969 43.054688-100.523438 97.46875-104.019532 0-.074218-.007812-.148437-.007812-.222656 0-21.425781 13.953124-39.574218 33.265624-45.894531-4.714843-1.542969-9.746093-2.394531-14.976562-2.394531-26.667969 0-48.289062 21.617187-48.289062 48.285156 0 .074219.007812.148438.007812.226562-54.414062 3.496094-97.46875 48.726563-97.46875 104.019532 0 57.574218 46.671875 104.246094 104.246094 104.246094h30c-57.574219 0-104.246094-46.671876-104.246094-104.246094zm0 0" fill="#cad8ea"/><path d="m37.5 123.40625c0-58.90625 43.949219-107.550781 100.84375-114.933594-4.890625-.628906-9.871094-.972656-14.9375-.972656-64.011719 0-115.90625 51.894531-115.90625 115.90625 0 31.855469 12.851562 60.699219 33.644531 81.652344 5.617188-5.171875 11.8125-9.722656 18.460938-13.570313-13.898438-19.117187-22.105469-42.636719-22.105469-68.082031zm0 0" fill="#e0c938"/><path d="m276 350.503906h-15v-15h15zm-25 0h-15v-15h15zm0 0" fill="#fff"/><path d="m418.355469 171.464844c-3.167969-67.816406-59.328125-122.011719-127.910157-122.011719-52.3125 0-97.199218 31.339844-117.042968 76.03125-6.398438-2.480469-13.242188-3.769531-20.152344-3.769531-28.515625 0-52.101562 21.507812-55.394531 49.152344-55.382813 6.882812-97.855469 54.355468-97.855469 110.878906 0 61.617187 50.128906 111.746094 111.746094 111.746094h288.507812c61.617188 0 111.746094-50.128907 111.746094-111.746094 0-54.753906-39.746094-101.492188-93.644531-110.28125zm-18.101563 207.027344h-288.507812c-53.347656 0-96.746094-43.398438-96.746094-96.746094 0-50.875 39.730469-93.277344 90.449219-96.535156l7.109375-.453126c-.105469-8.023437-.089844-7.046874-.097656-7.34375.046874-22.449218 18.324218-40.699218 40.789062-40.699218 7.144531 0 14.183594 1.882812 20.351562 5.445312l7.699219 4.449219 3.085938-8.339844c16.339843-44.152343 58.960937-73.816406 106.054687-73.816406 62.335938 0 113.050782 50.710937 113.050782 113.050781l-.042969 7.3125 6.773437.691406c49.472656 5.0625 86.777344 46.433594 86.777344 96.238282 0 53.347656-43.398438 96.746094-96.746094 96.746094zm0 0"/><path d="m57.386719 57.386719 10.605469 10.605469c32.386718-32.382813 84.753906-30.097657 114.554687 3.972656l11.289063-9.875c-35.351563-40.417969-97.765626-43.382813-136.449219-4.703125zm0 0"/><path d="m30.628906 179.507812c-10.226562-16.871093-15.628906-36.269531-15.628906-56.101562 0-59.773438 48.632812-108.40625 108.40625-108.40625 33 0 63.808594 14.777344 84.523438 40.542969l11.6875-9.398438c-23.574219-29.324219-58.640626-46.144531-96.210938-46.144531-68.046875 0-123.40625 55.359375-123.40625 123.40625 0 22.574219 6.15625 44.660156 17.800781 63.875zm0 0"/></svg>